<?xml version="1.0" encoding="UTF-8"?>
<svg xmlns="http://www.w3.org/2000/svg" xmlns:xlink="http://www.w3.org/1999/xlink" width="365pt" height="106.46pt" viewBox="0 0 365 106.46" version="1.1">
<g id="surface1">
<path style=" stroke:none;fill-rule:nonzero;fill:rgb(0.799561%,0.799561%,0.799561%);fill-opacity:1;" d="M 0 0.00390625 L 365 0.00390625 L 365 106.460938 L 0 106.460938 L 0 0.00390625 "/>
<path style=" stroke:none;fill-rule:nonzero;fill:rgb(87.799072%,14.898682%,14.898682%);fill-opacity:1;" d="M 10.828125 73.824219 L 10.828125 31.238281 L 20.195313 31.238281 L 20.195313 73.824219 Z M 60.710938 73.824219 L 40.089844 46.753906 L 40.089844 73.824219 L 30.84375 73.824219 L 30.84375 31.238281 L 39.480469 31.238281 L 59.433594 57.460938 L 59.433594 31.238281 L 68.679688 31.238281 L 68.679688 73.824219 Z M 98.855469 74.554688 C 86.324219 74.554688 77.015625 64.878906 77.015625 52.652344 L 77.015625 52.53125 C 77.015625 40.425781 86.140625 30.511719 99.21875 30.511719 C 107.25 30.511719 112.054688 33.1875 116.007813 37.078125 L 110.046875 43.953125 C 106.761719 40.972656 103.417969 39.148438 99.160156 39.148438 C 91.980469 39.148438 86.808594 45.109375 86.808594 52.410156 L 86.808594 52.53125 C 86.808594 59.832031 91.859375 65.914063 99.160156 65.914063 C 104.023438 65.914063 107.007813 63.96875 110.351563 60.925781 L 116.3125 66.949219 C 111.933594 71.632813 107.066406 74.554688 98.855469 74.554688 Z M 123.796875 73.824219 L 123.796875 31.238281 L 155.914063 31.238281 L 155.914063 39.574219 L 133.101563 39.574219 L 133.101563 48.210938 L 153.179688 48.210938 L 153.179688 56.546875 L 133.101563 56.546875 L 133.101563 65.488281 L 156.21875 65.488281 L 156.21875 73.824219 Z M 188.765625 46.144531 C 188.765625 41.945313 185.847656 39.695313 181.160156 39.695313 L 173.921875 39.695313 L 173.921875 52.714844 L 181.34375 52.714844 C 186.027344 52.714844 188.765625 49.914063 188.765625 46.265625 Z M 181.039063 61.046875 L 173.921875 61.046875 L 173.921875 73.824219 L 164.554688 73.824219 L 164.554688 31.238281 L 181.953125 31.238281 C 192.113281 31.238281 198.257813 37.261719 198.257813 45.960938 L 198.257813 46.082031 C 198.257813 55.9375 190.589844 61.046875 181.039063 61.046875 Z M 224.476563 39.878906 L 224.476563 73.824219 L 215.105469 73.824219 L 215.105469 39.878906 L 202.148438 39.878906 L 202.148438 31.238281 L 237.433594 31.238281 L 237.433594 39.878906 Z M 245.035156 73.824219 L 245.035156 31.238281 L 254.40625 31.238281 L 254.40625 73.824219 Z M 298.632813 52.53125 C 298.632813 45.230469 293.277344 39.148438 285.734375 39.148438 C 278.191406 39.148438 272.960938 45.109375 272.960938 52.410156 L 272.960938 52.53125 C 272.960938 59.832031 278.3125 65.914063 285.855469 65.914063 C 293.398438 65.914063 298.632813 59.953125 298.632813 52.652344 Z M 285.734375 74.554688 C 272.59375 74.554688 263.164063 64.757813 263.164063 52.652344 L 263.164063 52.53125 C 263.164063 40.425781 272.714844 30.511719 285.855469 30.511719 C 298.996094 30.511719 308.425781 40.304688 308.425781 52.410156 L 308.425781 52.53125 C 308.425781 64.636719 298.875 74.554688 285.734375 74.554688 Z M 346.75 73.824219 L 326.128906 46.753906 L 326.128906 73.824219 L 316.882813 73.824219 L 316.882813 31.238281 L 325.519531 31.238281 L 345.472656 57.460938 L 345.472656 31.238281 L 354.71875 31.238281 L 354.71875 73.824219 L 346.75 73.824219 "/>
</g>
</svg>
